<svg width="28" height="30" viewBox="0 0 28 30" fill="none" xmlns="http://www.w3.org/2000/svg">
<path d="M26.5899 10.77C25.2029 7.59293 22.667 5.05702 19.4899 3.67C19.1883 3.5492 18.8516 3.55055 18.551 3.67378C18.2504 3.797 18.0096 4.03241 17.8796 4.33013C17.7495 4.62785 17.7405 4.9645 17.8545 5.26873C17.9684 5.57297 18.1963 5.8209 18.4899 5.96C20.8559 6.99368 22.7938 8.81038 23.978 11.1047C25.1622 13.399 25.5204 16.0311 24.9924 18.5585C24.4644 21.0858 23.0824 23.3543 21.0787 24.9827C19.075 26.611 16.5718 27.4999 13.9899 27.4999C11.408 27.4999 8.9048 26.611 6.90112 24.9827C4.89743 23.3543 3.51543 21.0858 2.98743 18.5585C2.45944 16.0311 2.81763 13.399 4.00181 11.1047C5.18599 8.81038 7.12394 6.99368 9.48989 5.96C9.78348 5.8209 10.0114 5.57297 10.1253 5.26873C10.2392 4.9645 10.2302 4.62785 10.1002 4.33013C9.97023 4.03241 9.72942 3.797 9.42882 3.67378C9.12823 3.55055 8.79147 3.5492 8.48989 3.67C6.0015 4.75615 3.89099 6.55571 2.4252 8.84116C0.959397 11.1266 0.204118 13.7954 0.254838 16.51C0.305559 19.2246 1.16 21.8633 2.71015 24.0924C4.2603 26.3215 6.43655 28.041 8.96378 29.0334C11.491 30.0259 14.2558 30.2467 16.9085 29.6681C19.5613 29.0895 21.9829 27.7373 23.8673 25.7826C25.7516 23.8278 27.0142 21.3583 27.4952 18.6861C27.9763 16.014 27.6543 13.2592 26.5699 10.77H26.5899Z" fill="white"/>
<path d="M14 13.77C14.3315 13.77 14.6495 13.6383 14.8839 13.4039C15.1183 13.1695 15.25 12.8515 15.25 12.52V1.28C15.2593 0.948477 15.1365 0.626847 14.9086 0.385863C14.6808 0.144878 14.3665 0.00427989 14.035 -0.00500269C13.7035 -0.0142853 13.3818 0.108508 13.1409 0.336365C12.8999 0.564222 12.7593 0.878477 12.75 1.21V12.52C12.75 12.8515 12.8817 13.1695 13.1161 13.4039C13.3505 13.6383 13.6685 13.77 14 13.77Z" fill="white"/>
</svg>
